<?xml version="1.0" encoding="UTF-8" standalone="no"?>
<!DOCTYPE svg PUBLIC "-//W3C//DTD SVG 1.1//EN"
 "http://www.w3.org/Graphics/SVG/1.1/DTD/svg11.dtd">
<!-- Generated by graphviz version 6.0.1 (20220911.1526)
 -->
<!-- Title: plan Pages: 1 -->
<svg style="width: 120%"
 viewBox="0.00 0.00 1950.00 552.00" xmlns="http://www.w3.org/2000/svg" xmlns:xlink="http://www.w3.org/1999/xlink">
<g id="graph0" class="graph" transform="scale(1 1) rotate(0) translate(4 548)">
<title>plan</title>
<polygon fill="white" stroke="none" points="-4,4 -4,-548 1946,-548 1946,4 -4,4"/>
<!-- ouroboros&#45;consensus&#45;test&#45;0.1.0.0:test:test&#45;storage -->
<g id="node1" class="node">
<title>ouroboros&#45;consensus&#45;test&#45;0.1.0.0:test:test&#45;storage</title>
<path fill="none" stroke="darkgreen" stroke-width="2" d="M1372,-382C1372,-382 1111,-382 1111,-382 1105,-382 1099,-376 1099,-370 1099,-370 1099,-358 1099,-358 1099,-352 1105,-346 1111,-346 1111,-346 1372,-346 1372,-346 1378,-346 1384,-352 1384,-358 1384,-358 1384,-370 1384,-370 1384,-376 1378,-382 1372,-382"/>
<text text-anchor="middle" x="1241.5" y="-360.3" font-family="Times,serif" font-size="14.00">ouroboros&#45;consensus&#45;test&#45;0.1.0.0:test:test&#45;storage</text>
</g>
<!-- ouroboros&#45;consensus&#45;test&#45;0.1.0.0 -->
<g id="node2" class="node">
<title>ouroboros&#45;consensus&#45;test&#45;0.1.0.0</title>
<path fill="none" stroke="blue" stroke-width="2" d="M1699.5,-359C1699.5,-359 1526.5,-359 1526.5,-359 1520.5,-359 1514.5,-353 1514.5,-347 1514.5,-347 1514.5,-335 1514.5,-335 1514.5,-329 1520.5,-323 1526.5,-323 1526.5,-323 1699.5,-323 1699.5,-323 1705.5,-323 1711.5,-329 1711.5,-335 1711.5,-335 1711.5,-347 1711.5,-347 1711.5,-353 1705.5,-359 1699.5,-359"/>
<text text-anchor="middle" x="1613" y="-337.3" font-family="Times,serif" font-size="14.00">ouroboros&#45;consensus&#45;test&#45;0.1.0.0</text>
</g>
<!-- ouroboros&#45;consensus&#45;test&#45;0.1.0.0:test:test&#45;storage&#45;&gt;ouroboros&#45;consensus&#45;test&#45;0.1.0.0 -->
<g id="edge1" class="edge">
<title>ouroboros&#45;consensus&#45;test&#45;0.1.0.0:test:test&#45;storage&#45;&gt;ouroboros&#45;consensus&#45;test&#45;0.1.0.0</title>
<path fill="none" stroke="darkgreen" d="M1384.04,-355.19C1423.78,-352.72 1466.34,-350.07 1503.8,-347.73"/>
<polygon fill="darkgreen" stroke="darkgreen" points="1504.46,-351.2 1514.23,-347.09 1504.03,-344.21 1504.46,-351.2"/>
</g>
<!-- ouroboros&#45;consensus&#45;0.1.0.2 -->
<g id="node11" class="node">
<title>ouroboros&#45;consensus&#45;0.1.0.2</title>
<path fill="none" stroke="blue" stroke-width="2" d="M1930,-186C1930,-186 1781,-186 1781,-186 1775,-186 1769,-180 1769,-174 1769,-174 1769,-162 1769,-162 1769,-156 1775,-150 1781,-150 1781,-150 1930,-150 1930,-150 1936,-150 1942,-156 1942,-162 1942,-162 1942,-174 1942,-174 1942,-180 1936,-186 1930,-186"/>
<text text-anchor="middle" x="1855.5" y="-164.3" font-family="Times,serif" font-size="14.00">ouroboros&#45;consensus&#45;0.1.0.2</text>
</g>
<!-- ouroboros&#45;consensus&#45;test&#45;0.1.0.0&#45;&gt;ouroboros&#45;consensus&#45;0.1.0.2 -->
<g id="edge31" class="edge">
<title>ouroboros&#45;consensus&#45;test&#45;0.1.0.0&#45;&gt;ouroboros&#45;consensus&#45;0.1.0.2</title>
<path fill="none" stroke="blue" d="M1639.28,-322.81C1682.86,-291.47 1772.11,-227.27 1820.87,-192.19"/>
<polygon fill="blue" stroke="blue" points="1823.12,-194.88 1829.19,-186.2 1819.03,-189.2 1823.12,-194.88"/>
</g>
<!-- ouroboros&#45;consensus&#45;test&#45;0.1.0.0:test:test&#45;infra -->
<g id="node3" class="node">
<title>ouroboros&#45;consensus&#45;test&#45;0.1.0.0:test:test&#45;infra</title>
<path fill="none" stroke="darkgreen" stroke-width="2" d="M1365.5,-290C1365.5,-290 1117.5,-290 1117.5,-290 1111.5,-290 1105.5,-284 1105.5,-278 1105.5,-278 1105.5,-266 1105.5,-266 1105.5,-260 1111.5,-254 1117.5,-254 1117.5,-254 1365.5,-254 1365.5,-254 1371.5,-254 1377.5,-260 1377.5,-266 1377.5,-266 1377.5,-278 1377.5,-278 1377.5,-284 1371.5,-290 1365.5,-290"/>
<text text-anchor="middle" x="1241.5" y="-268.3" font-family="Times,serif" font-size="14.00">ouroboros&#45;consensus&#45;test&#45;0.1.0.0:test:test&#45;infra</text>
</g>
<!-- ouroboros&#45;consensus&#45;test&#45;0.1.0.0:test:test&#45;infra&#45;&gt;ouroboros&#45;consensus&#45;test&#45;0.1.0.0 -->
<g id="edge2" class="edge">
<title>ouroboros&#45;consensus&#45;test&#45;0.1.0.0:test:test&#45;infra&#45;&gt;ouroboros&#45;consensus&#45;test&#45;0.1.0.0</title>
<path fill="none" stroke="darkgreen" d="M1375.54,-290.02C1402.57,-294.2 1430.75,-298.92 1457,-304 1481.59,-308.76 1508.17,-314.78 1532.26,-320.57"/>
<polygon fill="darkgreen" stroke="darkgreen" points="1531.52,-324 1542.06,-322.95 1533.17,-317.19 1531.52,-324"/>
</g>
<!-- ouroboros&#45;consensus&#45;test&#45;0.1.0.0:test:test&#45;examples -->
<g id="node4" class="node">
<title>ouroboros&#45;consensus&#45;test&#45;0.1.0.0:test:test&#45;examples</title>
<path fill="none" stroke="darkgreen" stroke-width="2" d="M1378.5,-436C1378.5,-436 1104.5,-436 1104.5,-436 1098.5,-436 1092.5,-430 1092.5,-424 1092.5,-424 1092.5,-412 1092.5,-412 1092.5,-406 1098.5,-400 1104.5,-400 1104.5,-400 1378.5,-400 1378.5,-400 1384.5,-400 1390.5,-406 1390.5,-412 1390.5,-412 1390.5,-424 1390.5,-424 1390.5,-430 1384.5,-436 1378.5,-436"/>
<text text-anchor="middle" x="1241.5" y="-414.3" font-family="Times,serif" font-size="14.00">ouroboros&#45;consensus&#45;test&#45;0.1.0.0:test:test&#45;examples</text>
</g>
<!-- ouroboros&#45;consensus&#45;test&#45;0.1.0.0:test:test&#45;examples&#45;&gt;ouroboros&#45;consensus&#45;test&#45;0.1.0.0 -->
<g id="edge3" class="edge">
<title>ouroboros&#45;consensus&#45;test&#45;0.1.0.0:test:test&#45;examples&#45;&gt;ouroboros&#45;consensus&#45;test&#45;0.1.0.0</title>
<path fill="none" stroke="darkgreen" d="M1390.53,-403.05C1412.92,-399.72 1435.66,-395.74 1457,-391 1489.86,-383.7 1525.67,-372.38 1554.59,-362.35"/>
<polygon fill="darkgreen" stroke="darkgreen" points="1555.84,-365.62 1564.12,-359.01 1553.53,-359.02 1555.84,-365.62"/>
</g>
<!-- ouroboros&#45;consensus&#45;test&#45;0.1.0.0:test:test&#45;consensus -->
<g id="node5" class="node">
<title>ouroboros&#45;consensus&#45;test&#45;0.1.0.0:test:test&#45;consensus</title>
<path fill="none" stroke="darkgreen" stroke-width="2" d="M1380,-544C1380,-544 1103,-544 1103,-544 1097,-544 1091,-538 1091,-532 1091,-532 1091,-520 1091,-520 1091,-514 1097,-508 1103,-508 1103,-508 1380,-508 1380,-508 1386,-508 1392,-514 1392,-520 1392,-520 1392,-532 1392,-532 1392,-538 1386,-544 1380,-544"/>
<text text-anchor="middle" x="1241.5" y="-522.3" font-family="Times,serif" font-size="14.00">ouroboros&#45;consensus&#45;test&#45;0.1.0.0:test:test&#45;consensus</text>
</g>
<!-- ouroboros&#45;consensus&#45;test&#45;0.1.0.0:test:test&#45;consensus&#45;&gt;ouroboros&#45;consensus&#45;test&#45;0.1.0.0 -->
<g id="edge5" class="edge">
<title>ouroboros&#45;consensus&#45;test&#45;0.1.0.0:test:test&#45;consensus&#45;&gt;ouroboros&#45;consensus&#45;test&#45;0.1.0.0</title>
<path fill="none" stroke="darkgreen" d="M1392.1,-523.9C1414.98,-518.95 1437.45,-511.09 1457,-499 1481.53,-483.83 1473.97,-466.68 1493,-445 1519.34,-414.98 1554.2,-385.48 1579.37,-365.61"/>
<polygon fill="darkgreen" stroke="darkgreen" points="1581.78,-368.17 1587.51,-359.26 1577.47,-362.65 1581.78,-368.17"/>
</g>
<!-- ouroboros&#45;consensus&#45;mock&#45;0.1.0.0 -->
<g id="node6" class="node">
<title>ouroboros&#45;consensus&#45;mock&#45;0.1.0.0</title>
<path fill="none" stroke="blue" stroke-width="2" d="M1705.5,-490C1705.5,-490 1520.5,-490 1520.5,-490 1514.5,-490 1508.5,-484 1508.5,-478 1508.5,-478 1508.5,-466 1508.5,-466 1508.5,-460 1514.5,-454 1520.5,-454 1520.5,-454 1705.5,-454 1705.5,-454 1711.5,-454 1717.5,-460 1717.5,-466 1717.5,-466 1717.5,-478 1717.5,-478 1717.5,-484 1711.5,-490 1705.5,-490"/>
<text text-anchor="middle" x="1613" y="-468.3" font-family="Times,serif" font-size="14.00">ouroboros&#45;consensus&#45;mock&#45;0.1.0.0</text>
</g>
<!-- ouroboros&#45;consensus&#45;test&#45;0.1.0.0:test:test&#45;consensus&#45;&gt;ouroboros&#45;consensus&#45;mock&#45;0.1.0.0 -->
<g id="edge4" class="edge">
<title>ouroboros&#45;consensus&#45;test&#45;0.1.0.0:test:test&#45;consensus&#45;&gt;ouroboros&#45;consensus&#45;mock&#45;0.1.0.0</title>
<path fill="none" stroke="darkgreen" d="M1392.06,-508.09C1413.87,-505.22 1436.03,-502.14 1457,-499 1471.74,-496.79 1487.23,-494.3 1502.49,-491.74"/>
<polygon fill="darkgreen" stroke="darkgreen" points="1503.2,-495.17 1512.47,-490.05 1502.03,-488.27 1503.2,-495.17"/>
</g>
<!-- ouroboros&#45;consensus&#45;mock&#45;0.1.0.0&#45;&gt;ouroboros&#45;consensus&#45;0.1.0.2 -->
<g id="edge10" class="edge">
<title>ouroboros&#45;consensus&#45;mock&#45;0.1.0.0&#45;&gt;ouroboros&#45;consensus&#45;0.1.0.2</title>
<path fill="none" stroke="blue" d="M1638.78,-453.99C1664.34,-434.63 1704.39,-402.02 1733,-368 1780.23,-311.84 1821.29,-235.38 1841.38,-195.21"/>
<polygon fill="blue" stroke="blue" points="1844.62,-196.56 1845.92,-186.05 1838.34,-193.46 1844.62,-196.56"/>
</g>
<!-- ouroboros&#45;consensus&#45;shelley&#45;test&#45;0.1.0.0:test:test -->
<g id="node7" class="node">
<title>ouroboros&#45;consensus&#45;shelley&#45;test&#45;0.1.0.0:test:test</title>
<path fill="none" stroke="darkgreen" stroke-width="2" d="M664,-240C664,-240 404,-240 404,-240 398,-240 392,-234 392,-228 392,-228 392,-216 392,-216 392,-210 398,-204 404,-204 404,-204 664,-204 664,-204 670,-204 676,-210 676,-216 676,-216 676,-228 676,-228 676,-234 670,-240 664,-240"/>
<text text-anchor="middle" x="534" y="-218.3" font-family="Times,serif" font-size="14.00">ouroboros&#45;consensus&#45;shelley&#45;test&#45;0.1.0.0:test:test</text>
</g>
<!-- ouroboros&#45;consensus&#45;shelley&#45;test&#45;0.1.0.0 -->
<g id="node8" class="node">
<title>ouroboros&#45;consensus&#45;shelley&#45;test&#45;0.1.0.0</title>
<path fill="none" stroke="blue" stroke-width="2" d="M958.5,-236C958.5,-236 743.5,-236 743.5,-236 737.5,-236 731.5,-230 731.5,-224 731.5,-224 731.5,-212 731.5,-212 731.5,-206 737.5,-200 743.5,-200 743.5,-200 958.5,-200 958.5,-200 964.5,-200 970.5,-206 970.5,-212 970.5,-212 970.5,-224 970.5,-224 970.5,-230 964.5,-236 958.5,-236"/>
<text text-anchor="middle" x="851" y="-214.3" font-family="Times,serif" font-size="14.00">ouroboros&#45;consensus&#45;shelley&#45;test&#45;0.1.0.0</text>
</g>
<!-- ouroboros&#45;consensus&#45;shelley&#45;test&#45;0.1.0.0:test:test&#45;&gt;ouroboros&#45;consensus&#45;shelley&#45;test&#45;0.1.0.0 -->
<g id="edge6" class="edge">
<title>ouroboros&#45;consensus&#45;shelley&#45;test&#45;0.1.0.0:test:test&#45;&gt;ouroboros&#45;consensus&#45;shelley&#45;test&#45;0.1.0.0</title>
<path fill="none" stroke="darkgreen" d="M676.38,-220.2C691.26,-220.02 706.34,-219.82 721.07,-219.64"/>
<polygon fill="darkgreen" stroke="darkgreen" points="721.25,-223.14 731.21,-219.51 721.16,-216.14 721.25,-223.14"/>
</g>
<!-- ouroboros&#45;consensus&#45;shelley&#45;test&#45;0.1.0.0&#45;&gt;ouroboros&#45;consensus&#45;test&#45;0.1.0.0 -->
<g id="edge21" class="edge">
<title>ouroboros&#45;consensus&#45;shelley&#45;test&#45;0.1.0.0&#45;&gt;ouroboros&#45;consensus&#45;test&#45;0.1.0.0</title>
<path fill="none" stroke="blue" d="M881.85,-236.02C915.54,-255.36 972.62,-285.16 1026,-299 1113.44,-321.66 1360.41,-333.07 1504.29,-337.95"/>
<polygon fill="blue" stroke="blue" points="1504.36,-341.45 1514.47,-338.29 1504.59,-334.46 1504.36,-341.45"/>
</g>
<!-- ouroboros&#45;consensus&#45;protocol&#45;0.1.0.0:lib:ouroboros&#45;consensus&#45;protocol&#45;test -->
<g id="node20" class="node">
<title>ouroboros&#45;consensus&#45;protocol&#45;0.1.0.0:lib:ouroboros&#45;consensus&#45;protocol&#45;test</title>
<path fill="none" stroke="gray" stroke-width="2" d="M1445,-236C1445,-236 1038,-236 1038,-236 1032,-236 1026,-230 1026,-224 1026,-224 1026,-212 1026,-212 1026,-206 1032,-200 1038,-200 1038,-200 1445,-200 1445,-200 1451,-200 1457,-206 1457,-212 1457,-212 1457,-224 1457,-224 1457,-230 1451,-236 1445,-236"/>
<text text-anchor="middle" x="1241.5" y="-214.3" font-family="Times,serif" font-size="14.00">ouroboros&#45;consensus&#45;protocol&#45;0.1.0.0:lib:ouroboros&#45;consensus&#45;protocol&#45;test</text>
</g>
<!-- ouroboros&#45;consensus&#45;shelley&#45;test&#45;0.1.0.0&#45;&gt;ouroboros&#45;consensus&#45;protocol&#45;0.1.0.0:lib:ouroboros&#45;consensus&#45;protocol&#45;test -->
<g id="edge19" class="edge">
<title>ouroboros&#45;consensus&#45;shelley&#45;test&#45;0.1.0.0&#45;&gt;ouroboros&#45;consensus&#45;protocol&#45;0.1.0.0:lib:ouroboros&#45;consensus&#45;protocol&#45;test</title>
<path fill="none" stroke="blue" d="M970.67,-218C985.13,-218 1000.26,-218 1015.64,-218"/>
<polygon fill="blue" stroke="blue" points="1015.79,-221.5 1025.79,-218 1015.79,-214.5 1015.79,-221.5"/>
</g>
<!-- ouroboros&#45;consensus&#45;shelley&#45;0.1.0.0 -->
<g id="node21" class="node">
<title>ouroboros&#45;consensus&#45;shelley&#45;0.1.0.0</title>
<path fill="none" stroke="blue" stroke-width="2" d="M1337.5,-182C1337.5,-182 1145.5,-182 1145.5,-182 1139.5,-182 1133.5,-176 1133.5,-170 1133.5,-170 1133.5,-158 1133.5,-158 1133.5,-152 1139.5,-146 1145.5,-146 1145.5,-146 1337.5,-146 1337.5,-146 1343.5,-146 1349.5,-152 1349.5,-158 1349.5,-158 1349.5,-170 1349.5,-170 1349.5,-176 1343.5,-182 1337.5,-182"/>
<text text-anchor="middle" x="1241.5" y="-160.3" font-family="Times,serif" font-size="14.00">ouroboros&#45;consensus&#45;shelley&#45;0.1.0.0</text>
</g>
<!-- ouroboros&#45;consensus&#45;shelley&#45;test&#45;0.1.0.0&#45;&gt;ouroboros&#45;consensus&#45;shelley&#45;0.1.0.0 -->
<g id="edge20" class="edge">
<title>ouroboros&#45;consensus&#45;shelley&#45;test&#45;0.1.0.0&#45;&gt;ouroboros&#45;consensus&#45;shelley&#45;0.1.0.0</title>
<path fill="none" stroke="blue" d="M965.18,-199.95C985.42,-196.87 1006.32,-193.76 1026,-191 1057.53,-186.57 1091.71,-182.11 1123.33,-178.13"/>
<polygon fill="blue" stroke="blue" points="1124.01,-181.57 1133.5,-176.86 1123.14,-174.63 1124.01,-181.57"/>
</g>
<!-- ouroboros&#45;consensus&#45;mock&#45;test&#45;0.1.0.0:test:test -->
<g id="node9" class="node">
<title>ouroboros&#45;consensus&#45;mock&#45;test&#45;0.1.0.0:test:test</title>
<path fill="none" stroke="darkgreen" stroke-width="2" d="M977.5,-490C977.5,-490 724.5,-490 724.5,-490 718.5,-490 712.5,-484 712.5,-478 712.5,-478 712.5,-466 712.5,-466 712.5,-460 718.5,-454 724.5,-454 724.5,-454 977.5,-454 977.5,-454 983.5,-454 989.5,-460 989.5,-466 989.5,-466 989.5,-478 989.5,-478 989.5,-484 983.5,-490 977.5,-490"/>
<text text-anchor="middle" x="851" y="-468.3" font-family="Times,serif" font-size="14.00">ouroboros&#45;consensus&#45;mock&#45;test&#45;0.1.0.0:test:test</text>
</g>
<!-- ouroboros&#45;consensus&#45;mock&#45;test&#45;0.1.0.0 -->
<g id="node10" class="node">
<title>ouroboros&#45;consensus&#45;mock&#45;test&#45;0.1.0.0</title>
<path fill="none" stroke="blue" stroke-width="2" d="M1345.5,-490C1345.5,-490 1137.5,-490 1137.5,-490 1131.5,-490 1125.5,-484 1125.5,-478 1125.5,-478 1125.5,-466 1125.5,-466 1125.5,-460 1131.5,-454 1137.5,-454 1137.5,-454 1345.5,-454 1345.5,-454 1351.5,-454 1357.5,-460 1357.5,-466 1357.5,-466 1357.5,-478 1357.5,-478 1357.5,-484 1351.5,-490 1345.5,-490"/>
<text text-anchor="middle" x="1241.5" y="-468.3" font-family="Times,serif" font-size="14.00">ouroboros&#45;consensus&#45;mock&#45;test&#45;0.1.0.0</text>
</g>
<!-- ouroboros&#45;consensus&#45;mock&#45;test&#45;0.1.0.0:test:test&#45;&gt;ouroboros&#45;consensus&#45;mock&#45;test&#45;0.1.0.0 -->
<g id="edge7" class="edge">
<title>ouroboros&#45;consensus&#45;mock&#45;test&#45;0.1.0.0:test:test&#45;&gt;ouroboros&#45;consensus&#45;mock&#45;test&#45;0.1.0.0</title>
<path fill="none" stroke="darkgreen" d="M989.52,-472C1030.47,-472 1075.1,-472 1115.23,-472"/>
<polygon fill="darkgreen" stroke="darkgreen" points="1115.33,-475.5 1125.33,-472 1115.33,-468.5 1115.33,-475.5"/>
</g>
<!-- ouroboros&#45;consensus&#45;mock&#45;test&#45;0.1.0.0&#45;&gt;ouroboros&#45;consensus&#45;test&#45;0.1.0.0 -->
<g id="edge9" class="edge">
<title>ouroboros&#45;consensus&#45;mock&#45;test&#45;0.1.0.0&#45;&gt;ouroboros&#45;consensus&#45;test&#45;0.1.0.0</title>
<path fill="none" stroke="blue" d="M1357.59,-467.43C1390.46,-463.5 1425.8,-456.68 1457,-445 1505.83,-426.73 1554.5,-390.35 1583.93,-365.84"/>
<polygon fill="blue" stroke="blue" points="1586.32,-368.39 1591.7,-359.26 1581.8,-363.05 1586.32,-368.39"/>
</g>
<!-- ouroboros&#45;consensus&#45;mock&#45;test&#45;0.1.0.0&#45;&gt;ouroboros&#45;consensus&#45;mock&#45;0.1.0.0 -->
<g id="edge8" class="edge">
<title>ouroboros&#45;consensus&#45;mock&#45;test&#45;0.1.0.0&#45;&gt;ouroboros&#45;consensus&#45;mock&#45;0.1.0.0</title>
<path fill="none" stroke="blue" d="M1357.64,-472C1402.44,-472 1453.63,-472 1498.29,-472"/>
<polygon fill="blue" stroke="blue" points="1498.3,-475.5 1508.3,-472 1498.3,-468.5 1498.3,-475.5"/>
</g>
<!-- ouroboros&#45;consensus&#45;cardano&#45;tools&#45;0.1.0.0:test:test -->
<g id="node12" class="node">
<title>ouroboros&#45;consensus&#45;cardano&#45;tools&#45;0.1.0.0:test:test</title>
<path fill="none" stroke="darkgreen" stroke-width="2" d="M314,-92C314,-92 42,-92 42,-92 36,-92 30,-86 30,-80 30,-80 30,-68 30,-68 30,-62 36,-56 42,-56 42,-56 314,-56 314,-56 320,-56 326,-62 326,-68 326,-68 326,-80 326,-80 326,-86 320,-92 314,-92"/>
<text text-anchor="middle" x="178" y="-70.3" font-family="Times,serif" font-size="14.00">ouroboros&#45;consensus&#45;cardano&#45;tools&#45;0.1.0.0:test:test</text>
</g>
<!-- ouroboros&#45;consensus&#45;cardano&#45;tools&#45;0.1.0.0 -->
<g id="node13" class="node">
<title>ouroboros&#45;consensus&#45;cardano&#45;tools&#45;0.1.0.0</title>
<path fill="none" stroke="blue" stroke-width="2" d="M647.5,-105C647.5,-105 420.5,-105 420.5,-105 414.5,-105 408.5,-99 408.5,-93 408.5,-93 408.5,-81 408.5,-81 408.5,-75 414.5,-69 420.5,-69 420.5,-69 647.5,-69 647.5,-69 653.5,-69 659.5,-75 659.5,-81 659.5,-81 659.5,-93 659.5,-93 659.5,-99 653.5,-105 647.5,-105"/>
<text text-anchor="middle" x="534" y="-83.3" font-family="Times,serif" font-size="14.00">ouroboros&#45;consensus&#45;cardano&#45;tools&#45;0.1.0.0</text>
</g>
<!-- ouroboros&#45;consensus&#45;cardano&#45;tools&#45;0.1.0.0:test:test&#45;&gt;ouroboros&#45;consensus&#45;cardano&#45;tools&#45;0.1.0.0 -->
<g id="edge11" class="edge">
<title>ouroboros&#45;consensus&#45;cardano&#45;tools&#45;0.1.0.0:test:test&#45;&gt;ouroboros&#45;consensus&#45;cardano&#45;tools&#45;0.1.0.0</title>
<path fill="none" stroke="darkgreen" d="M326.05,-79.4C349.99,-80.28 374.68,-81.19 398.3,-82.05"/>
<polygon fill="darkgreen" stroke="darkgreen" points="398.23,-85.55 408.35,-82.42 398.48,-78.56 398.23,-85.55"/>
</g>
<!-- ouroboros&#45;consensus&#45;cardano&#45;0.1.0.0 -->
<g id="node16" class="node">
<title>ouroboros&#45;consensus&#45;cardano&#45;0.1.0.0</title>
<path fill="none" stroke="blue" stroke-width="2" d="M949.5,-140C949.5,-140 752.5,-140 752.5,-140 746.5,-140 740.5,-134 740.5,-128 740.5,-128 740.5,-116 740.5,-116 740.5,-110 746.5,-104 752.5,-104 752.5,-104 949.5,-104 949.5,-104 955.5,-104 961.5,-110 961.5,-116 961.5,-116 961.5,-128 961.5,-128 961.5,-134 955.5,-140 949.5,-140"/>
<text text-anchor="middle" x="851" y="-118.3" font-family="Times,serif" font-size="14.00">ouroboros&#45;consensus&#45;cardano&#45;0.1.0.0</text>
</g>
<!-- ouroboros&#45;consensus&#45;cardano&#45;tools&#45;0.1.0.0&#45;&gt;ouroboros&#45;consensus&#45;cardano&#45;0.1.0.0 -->
<g id="edge14" class="edge">
<title>ouroboros&#45;consensus&#45;cardano&#45;tools&#45;0.1.0.0&#45;&gt;ouroboros&#45;consensus&#45;cardano&#45;0.1.0.0</title>
<path fill="none" stroke="blue" d="M659.95,-100.88C683.14,-103.46 707.32,-106.15 730.35,-108.71"/>
<polygon fill="blue" stroke="blue" points="730.16,-112.21 740.49,-109.83 730.94,-105.25 730.16,-112.21"/>
</g>
<!-- ouroboros&#45;consensus&#45;cardano&#45;tools&#45;0.1.0.0:exe:db&#45;synthesizer -->
<g id="node14" class="node">
<title>ouroboros&#45;consensus&#45;cardano&#45;tools&#45;0.1.0.0:exe:db&#45;synthesizer</title>
<path fill="none" stroke="brown" stroke-width="2" d="M344,-38C344,-38 12,-38 12,-38 6,-38 0,-32 0,-26 0,-26 0,-14 0,-14 0,-8 6,-2 12,-2 12,-2 344,-2 344,-2 350,-2 356,-8 356,-14 356,-14 356,-26 356,-26 356,-32 350,-38 344,-38"/>
<text text-anchor="middle" x="178" y="-16.3" font-family="Times,serif" font-size="14.00">ouroboros&#45;consensus&#45;cardano&#45;tools&#45;0.1.0.0:exe:db&#45;synthesizer</text>
</g>
<!-- ouroboros&#45;consensus&#45;cardano&#45;tools&#45;0.1.0.0:exe:db&#45;synthesizer&#45;&gt;ouroboros&#45;consensus&#45;cardano&#45;tools&#45;0.1.0.0 -->
<g id="edge12" class="edge">
<title>ouroboros&#45;consensus&#45;cardano&#45;tools&#45;0.1.0.0:exe:db&#45;synthesizer&#45;&gt;ouroboros&#45;consensus&#45;cardano&#45;tools&#45;0.1.0.0</title>
<path fill="none" stroke="brown" d="M304.41,-38C321.77,-40.82 339.35,-43.85 356,-47 386.45,-52.76 419.64,-60 448.96,-66.73"/>
<polygon fill="brown" stroke="brown" points="448.22,-70.15 458.75,-68.99 449.79,-63.33 448.22,-70.15"/>
</g>
<!-- ouroboros&#45;consensus&#45;cardano&#45;tools&#45;0.1.0.0:exe:db&#45;analyser -->
<g id="node15" class="node">
<title>ouroboros&#45;consensus&#45;cardano&#45;tools&#45;0.1.0.0:exe:db&#45;analyser</title>
<path fill="none" stroke="brown" stroke-width="2" d="M336.5,-146C336.5,-146 19.5,-146 19.5,-146 13.5,-146 7.5,-140 7.5,-134 7.5,-134 7.5,-122 7.5,-122 7.5,-116 13.5,-110 19.5,-110 19.5,-110 336.5,-110 336.5,-110 342.5,-110 348.5,-116 348.5,-122 348.5,-122 348.5,-134 348.5,-134 348.5,-140 342.5,-146 336.5,-146"/>
<text text-anchor="middle" x="178" y="-124.3" font-family="Times,serif" font-size="14.00">ouroboros&#45;consensus&#45;cardano&#45;tools&#45;0.1.0.0:exe:db&#45;analyser</text>
</g>
<!-- ouroboros&#45;consensus&#45;cardano&#45;tools&#45;0.1.0.0:exe:db&#45;analyser&#45;&gt;ouroboros&#45;consensus&#45;cardano&#45;tools&#45;0.1.0.0 -->
<g id="edge13" class="edge">
<title>ouroboros&#45;consensus&#45;cardano&#45;tools&#45;0.1.0.0:exe:db&#45;analyser&#45;&gt;ouroboros&#45;consensus&#45;cardano&#45;tools&#45;0.1.0.0</title>
<path fill="none" stroke="brown" d="M334.53,-109.99C355.74,-107.53 377.38,-105.02 398.19,-102.61"/>
<polygon fill="brown" stroke="brown" points="398.8,-106.07 408.33,-101.44 398,-99.11 398.8,-106.07"/>
</g>
<!-- ouroboros&#45;consensus&#45;cardano&#45;0.1.0.0&#45;&gt;ouroboros&#45;consensus&#45;shelley&#45;0.1.0.0 -->
<g id="edge23" class="edge">
<title>ouroboros&#45;consensus&#45;cardano&#45;0.1.0.0&#45;&gt;ouroboros&#45;consensus&#45;shelley&#45;0.1.0.0</title>
<path fill="none" stroke="blue" d="M961.51,-133.84C1011.9,-139.29 1071.75,-145.76 1123.07,-151.3"/>
<polygon fill="blue" stroke="blue" points="1122.89,-154.81 1133.21,-152.4 1123.65,-147.85 1122.89,-154.81"/>
</g>
<!-- ouroboros&#45;consensus&#45;byron&#45;0.1.0.0 -->
<g id="node23" class="node">
<title>ouroboros&#45;consensus&#45;byron&#45;0.1.0.0</title>
<path fill="none" stroke="blue" stroke-width="2" d="M1705.5,-105C1705.5,-105 1520.5,-105 1520.5,-105 1514.5,-105 1508.5,-99 1508.5,-93 1508.5,-93 1508.5,-81 1508.5,-81 1508.5,-75 1514.5,-69 1520.5,-69 1520.5,-69 1705.5,-69 1705.5,-69 1711.5,-69 1717.5,-75 1717.5,-81 1717.5,-81 1717.5,-93 1717.5,-93 1717.5,-99 1711.5,-105 1705.5,-105"/>
<text text-anchor="middle" x="1613" y="-83.3" font-family="Times,serif" font-size="14.00">ouroboros&#45;consensus&#45;byron&#45;0.1.0.0</text>
</g>
<!-- ouroboros&#45;consensus&#45;cardano&#45;0.1.0.0&#45;&gt;ouroboros&#45;consensus&#45;byron&#45;0.1.0.0 -->
<g id="edge24" class="edge">
<title>ouroboros&#45;consensus&#45;cardano&#45;0.1.0.0&#45;&gt;ouroboros&#45;consensus&#45;byron&#45;0.1.0.0</title>
<path fill="none" stroke="blue" d="M952.22,-103.97C964.99,-101.21 977.84,-98.2 990,-95 1006.31,-90.71 1009.35,-85.7 1026,-83 1188.35,-56.65 1379.34,-65.18 1498.06,-75.04"/>
<polygon fill="blue" stroke="blue" points="1497.99,-78.54 1508.25,-75.9 1498.58,-71.57 1497.99,-78.54"/>
</g>
<!-- ouroboros&#45;consensus&#45;cardano&#45;test&#45;0.1.0.0:test:test -->
<g id="node17" class="node">
<title>ouroboros&#45;consensus&#45;cardano&#45;test&#45;0.1.0.0:test:test</title>
<path fill="none" stroke="darkgreen" stroke-width="2" d="M310.5,-200C310.5,-200 45.5,-200 45.5,-200 39.5,-200 33.5,-194 33.5,-188 33.5,-188 33.5,-176 33.5,-176 33.5,-170 39.5,-164 45.5,-164 45.5,-164 310.5,-164 310.5,-164 316.5,-164 322.5,-170 322.5,-176 322.5,-176 322.5,-188 322.5,-188 322.5,-194 316.5,-200 310.5,-200"/>
<text text-anchor="middle" x="178" y="-178.3" font-family="Times,serif" font-size="14.00">ouroboros&#45;consensus&#45;cardano&#45;test&#45;0.1.0.0:test:test</text>
</g>
<!-- ouroboros&#45;consensus&#45;cardano&#45;test&#45;0.1.0.0 -->
<g id="node18" class="node">
<title>ouroboros&#45;consensus&#45;cardano&#45;test&#45;0.1.0.0</title>
<path fill="none" stroke="blue" stroke-width="2" d="M644,-186C644,-186 424,-186 424,-186 418,-186 412,-180 412,-174 412,-174 412,-162 412,-162 412,-156 418,-150 424,-150 424,-150 644,-150 644,-150 650,-150 656,-156 656,-162 656,-162 656,-174 656,-174 656,-180 650,-186 644,-186"/>
<text text-anchor="middle" x="534" y="-164.3" font-family="Times,serif" font-size="14.00">ouroboros&#45;consensus&#45;cardano&#45;test&#45;0.1.0.0</text>
</g>
<!-- ouroboros&#45;consensus&#45;cardano&#45;test&#45;0.1.0.0:test:test&#45;&gt;ouroboros&#45;consensus&#45;cardano&#45;test&#45;0.1.0.0 -->
<g id="edge15" class="edge">
<title>ouroboros&#45;consensus&#45;cardano&#45;test&#45;0.1.0.0:test:test&#45;&gt;ouroboros&#45;consensus&#45;cardano&#45;test&#45;0.1.0.0</title>
<path fill="none" stroke="darkgreen" d="M322.73,-176.32C348.85,-175.28 375.98,-174.21 401.73,-173.19"/>
<polygon fill="darkgreen" stroke="darkgreen" points="402.04,-176.68 411.9,-172.79 401.77,-169.69 402.04,-176.68"/>
</g>
<!-- ouroboros&#45;consensus&#45;cardano&#45;test&#45;0.1.0.0&#45;&gt;ouroboros&#45;consensus&#45;shelley&#45;test&#45;0.1.0.0 -->
<g id="edge16" class="edge">
<title>ouroboros&#45;consensus&#45;cardano&#45;test&#45;0.1.0.0&#45;&gt;ouroboros&#45;consensus&#45;shelley&#45;test&#45;0.1.0.0</title>
<path fill="none" stroke="blue" d="M648.72,-186.05C673.93,-190.05 700.75,-194.31 726.33,-198.37"/>
<polygon fill="blue" stroke="blue" points="726.02,-201.86 736.44,-199.98 727.12,-194.95 726.02,-201.86"/>
</g>
<!-- ouroboros&#45;consensus&#45;cardano&#45;test&#45;0.1.0.0&#45;&gt;ouroboros&#45;consensus&#45;cardano&#45;0.1.0.0 -->
<g id="edge17" class="edge">
<title>ouroboros&#45;consensus&#45;cardano&#45;test&#45;0.1.0.0&#45;&gt;ouroboros&#45;consensus&#45;cardano&#45;0.1.0.0</title>
<path fill="none" stroke="blue" d="M656.34,-150.28C680.63,-146.73 706.14,-143.01 730.38,-139.47"/>
<polygon fill="blue" stroke="blue" points="730.93,-142.93 740.32,-138.02 729.92,-136 730.93,-142.93"/>
</g>
<!-- ouroboros&#45;consensus&#45;byron&#45;test&#45;0.1.0.0 -->
<g id="node19" class="node">
<title>ouroboros&#45;consensus&#45;byron&#45;test&#45;0.1.0.0</title>
<path fill="none" stroke="blue" stroke-width="2" d="M1346,-128C1346,-128 1137,-128 1137,-128 1131,-128 1125,-122 1125,-116 1125,-116 1125,-104 1125,-104 1125,-98 1131,-92 1137,-92 1137,-92 1346,-92 1346,-92 1352,-92 1358,-98 1358,-104 1358,-104 1358,-116 1358,-116 1358,-122 1352,-128 1346,-128"/>
<text text-anchor="middle" x="1241.5" y="-106.3" font-family="Times,serif" font-size="14.00">ouroboros&#45;consensus&#45;byron&#45;test&#45;0.1.0.0</text>
</g>
<!-- ouroboros&#45;consensus&#45;cardano&#45;test&#45;0.1.0.0&#45;&gt;ouroboros&#45;consensus&#45;byron&#45;test&#45;0.1.0.0 -->
<g id="edge18" class="edge">
<title>ouroboros&#45;consensus&#45;cardano&#45;test&#45;0.1.0.0&#45;&gt;ouroboros&#45;consensus&#45;byron&#45;test&#45;0.1.0.0</title>
<path fill="none" stroke="blue" d="M656.25,-172.09C748.51,-173.01 878.22,-169.54 990,-149 1006.59,-145.95 1009.55,-140.74 1026,-137 1054.4,-130.54 1085.29,-125.52 1114.56,-121.66"/>
<polygon fill="blue" stroke="blue" points="1115.36,-125.08 1124.83,-120.34 1114.47,-118.14 1115.36,-125.08"/>
</g>
<!-- ouroboros&#45;consensus&#45;byron&#45;test&#45;0.1.0.0&#45;&gt;ouroboros&#45;consensus&#45;test&#45;0.1.0.0 -->
<g id="edge28" class="edge">
<title>ouroboros&#45;consensus&#45;byron&#45;test&#45;0.1.0.0&#45;&gt;ouroboros&#45;consensus&#45;test&#45;0.1.0.0</title>
<path fill="none" stroke="blue" d="M1358.23,-103.23C1392.86,-106.52 1429.01,-115.83 1457,-137 1489.72,-161.75 1470.07,-187.98 1493,-222 1517.86,-258.89 1555.24,-293.99 1581.46,-316.38"/>
<polygon fill="blue" stroke="blue" points="1579.3,-319.15 1589.21,-322.91 1583.81,-313.79 1579.3,-319.15"/>
</g>
<!-- ouroboros&#45;consensus&#45;byron&#45;test&#45;0.1.0.0&#45;&gt;ouroboros&#45;consensus&#45;byron&#45;0.1.0.0 -->
<g id="edge30" class="edge">
<title>ouroboros&#45;consensus&#45;byron&#45;test&#45;0.1.0.0&#45;&gt;ouroboros&#45;consensus&#45;byron&#45;0.1.0.0</title>
<path fill="none" stroke="blue" d="M1358.15,-102.8C1402.73,-100.03 1453.58,-96.86 1498.01,-94.1"/>
<polygon fill="blue" stroke="blue" points="1498.5,-97.57 1508.27,-93.46 1498.07,-90.59 1498.5,-97.57"/>
</g>
<!-- ouroboros&#45;consensus&#45;byronspec&#45;0.1.0.0 -->
<g id="node25" class="node">
<title>ouroboros&#45;consensus&#45;byronspec&#45;0.1.0.0</title>
<path fill="none" stroke="blue" stroke-width="2" d="M1717.5,-159C1717.5,-159 1508.5,-159 1508.5,-159 1502.5,-159 1496.5,-153 1496.5,-147 1496.5,-147 1496.5,-135 1496.5,-135 1496.5,-129 1502.5,-123 1508.5,-123 1508.5,-123 1717.5,-123 1717.5,-123 1723.5,-123 1729.5,-129 1729.5,-135 1729.5,-135 1729.5,-147 1729.5,-147 1729.5,-153 1723.5,-159 1717.5,-159"/>
<text text-anchor="middle" x="1613" y="-137.3" font-family="Times,serif" font-size="14.00">ouroboros&#45;consensus&#45;byronspec&#45;0.1.0.0</text>
</g>
<!-- ouroboros&#45;consensus&#45;byron&#45;test&#45;0.1.0.0&#45;&gt;ouroboros&#45;consensus&#45;byronspec&#45;0.1.0.0 -->
<g id="edge29" class="edge">
<title>ouroboros&#45;consensus&#45;byron&#45;test&#45;0.1.0.0&#45;&gt;ouroboros&#45;consensus&#45;byronspec&#45;0.1.0.0</title>
<path fill="none" stroke="blue" d="M1358.15,-119.7C1398.82,-123.12 1444.73,-126.97 1486.2,-130.45"/>
<polygon fill="blue" stroke="blue" points="1486.11,-133.95 1496.36,-131.3 1486.69,-126.97 1486.11,-133.95"/>
</g>
<!-- ouroboros&#45;consensus&#45;protocol&#45;0.1.0.0 -->
<g id="node22" class="node">
<title>ouroboros&#45;consensus&#45;protocol&#45;0.1.0.0</title>
<path fill="none" stroke="blue" stroke-width="2" d="M1712.5,-213C1712.5,-213 1513.5,-213 1513.5,-213 1507.5,-213 1501.5,-207 1501.5,-201 1501.5,-201 1501.5,-189 1501.5,-189 1501.5,-183 1507.5,-177 1513.5,-177 1513.5,-177 1712.5,-177 1712.5,-177 1718.5,-177 1724.5,-183 1724.5,-189 1724.5,-189 1724.5,-201 1724.5,-201 1724.5,-207 1718.5,-213 1712.5,-213"/>
<text text-anchor="middle" x="1613" y="-191.3" font-family="Times,serif" font-size="14.00">ouroboros&#45;consensus&#45;protocol&#45;0.1.0.0</text>
</g>
<!-- ouroboros&#45;consensus&#45;protocol&#45;0.1.0.0:lib:ouroboros&#45;consensus&#45;protocol&#45;test&#45;&gt;ouroboros&#45;consensus&#45;protocol&#45;0.1.0.0 -->
<g id="edge22" class="edge">
<title>ouroboros&#45;consensus&#45;protocol&#45;0.1.0.0:lib:ouroboros&#45;consensus&#45;protocol&#45;test&#45;&gt;ouroboros&#45;consensus&#45;protocol&#45;0.1.0.0</title>
<path fill="none" stroke="gray" d="M1457.17,-204.64C1468.74,-203.92 1480.14,-203.21 1491.19,-202.52"/>
<polygon fill="gray" stroke="gray" points="1491.48,-206.01 1501.24,-201.89 1491.04,-199.02 1491.48,-206.01"/>
</g>
<!-- ouroboros&#45;consensus&#45;shelley&#45;0.1.0.0&#45;&gt;ouroboros&#45;consensus&#45;protocol&#45;0.1.0.0 -->
<g id="edge25" class="edge">
<title>ouroboros&#45;consensus&#45;shelley&#45;0.1.0.0&#45;&gt;ouroboros&#45;consensus&#45;protocol&#45;0.1.0.0</title>
<path fill="none" stroke="blue" d="M1349.87,-173.01C1394.15,-176.72 1445.66,-181.04 1491.24,-184.87"/>
<polygon fill="blue" stroke="blue" points="1491.22,-188.38 1501.47,-185.73 1491.8,-181.4 1491.22,-188.38"/>
</g>
<!-- ouroboros&#45;consensus&#45;protocol&#45;0.1.0.0&#45;&gt;ouroboros&#45;consensus&#45;0.1.0.2 -->
<g id="edge26" class="edge">
<title>ouroboros&#45;consensus&#45;protocol&#45;0.1.0.0&#45;&gt;ouroboros&#45;consensus&#45;0.1.0.2</title>
<path fill="none" stroke="blue" d="M1724.75,-182.57C1736.07,-181.3 1747.51,-180.01 1758.66,-178.76"/>
<polygon fill="blue" stroke="blue" points="1759.26,-182.21 1768.8,-177.62 1758.48,-175.26 1759.26,-182.21"/>
</g>
<!-- ouroboros&#45;consensus&#45;byron&#45;0.1.0.0&#45;&gt;ouroboros&#45;consensus&#45;0.1.0.2 -->
<g id="edge34" class="edge">
<title>ouroboros&#45;consensus&#45;byron&#45;0.1.0.0&#45;&gt;ouroboros&#45;consensus&#45;0.1.0.2</title>
<path fill="none" stroke="blue" d="M1702.59,-105.08C1712.92,-107.78 1723.25,-110.76 1733,-114 1758.97,-122.63 1786.95,-134.85 1809.5,-145.48"/>
<polygon fill="blue" stroke="blue" points="1808.28,-148.77 1818.81,-149.92 1811.3,-142.46 1808.28,-148.77"/>
</g>
<!-- ouroboros&#45;consensus&#45;byron&#45;test&#45;0.1.0.0:test:test -->
<g id="node24" class="node">
<title>ouroboros&#45;consensus&#45;byron&#45;test&#45;0.1.0.0:test:test</title>
<path fill="none" stroke="darkgreen" stroke-width="2" d="M978,-86C978,-86 724,-86 724,-86 718,-86 712,-80 712,-74 712,-74 712,-62 712,-62 712,-56 718,-50 724,-50 724,-50 978,-50 978,-50 984,-50 990,-56 990,-62 990,-62 990,-74 990,-74 990,-80 984,-86 978,-86"/>
<text text-anchor="middle" x="851" y="-64.3" font-family="Times,serif" font-size="14.00">ouroboros&#45;consensus&#45;byron&#45;test&#45;0.1.0.0:test:test</text>
</g>
<!-- ouroboros&#45;consensus&#45;byron&#45;test&#45;0.1.0.0:test:test&#45;&gt;ouroboros&#45;consensus&#45;byron&#45;test&#45;0.1.0.0 -->
<g id="edge27" class="edge">
<title>ouroboros&#45;consensus&#45;byron&#45;test&#45;0.1.0.0:test:test&#45;&gt;ouroboros&#45;consensus&#45;byron&#45;test&#45;0.1.0.0</title>
<path fill="none" stroke="darkgreen" d="M990.06,-82.93C1030.68,-87.32 1074.88,-92.09 1114.68,-96.4"/>
<polygon fill="darkgreen" stroke="darkgreen" points="1114.38,-99.89 1124.7,-97.48 1115.14,-92.93 1114.38,-99.89"/>
</g>
<!-- ouroboros&#45;consensus&#45;byronspec&#45;0.1.0.0&#45;&gt;ouroboros&#45;consensus&#45;0.1.0.2 -->
<g id="edge32" class="edge">
<title>ouroboros&#45;consensus&#45;byronspec&#45;0.1.0.0&#45;&gt;ouroboros&#45;consensus&#45;0.1.0.2</title>
<path fill="none" stroke="blue" d="M1729.67,-153.99C1739.5,-155.09 1749.36,-156.2 1759,-157.28"/>
<polygon fill="blue" stroke="blue" points="1758.63,-160.76 1768.96,-158.4 1759.41,-153.8 1758.63,-160.76"/>
</g>
<!-- ouroboros&#45;consensus&#45;byron&#45;0.1.0.0:exe:db&#45;converter -->
<g id="node26" class="node">
<title>ouroboros&#45;consensus&#45;byron&#45;0.1.0.0:exe:db&#45;converter</title>
<path fill="none" stroke="brown" stroke-width="2" d="M1382,-36C1382,-36 1101,-36 1101,-36 1095,-36 1089,-30 1089,-24 1089,-24 1089,-12 1089,-12 1089,-6 1095,0 1101,0 1101,0 1382,0 1382,0 1388,0 1394,-6 1394,-12 1394,-12 1394,-24 1394,-24 1394,-30 1388,-36 1382,-36"/>
<text text-anchor="middle" x="1241.5" y="-14.3" font-family="Times,serif" font-size="14.00">ouroboros&#45;consensus&#45;byron&#45;0.1.0.0:exe:db&#45;converter</text>
</g>
<!-- ouroboros&#45;consensus&#45;byron&#45;0.1.0.0:exe:db&#45;converter&#45;&gt;ouroboros&#45;consensus&#45;byron&#45;0.1.0.0 -->
<g id="edge33" class="edge">
<title>ouroboros&#45;consensus&#45;byron&#45;0.1.0.0:exe:db&#45;converter&#45;&gt;ouroboros&#45;consensus&#45;byron&#45;0.1.0.0</title>
<path fill="none" stroke="brown" d="M1380.55,-36.04C1406.07,-40.1 1432.42,-44.77 1457,-50 1473.24,-53.45 1476.9,-55.94 1493,-60 1501.82,-62.23 1511.04,-64.46 1520.26,-66.65"/>
<polygon fill="brown" stroke="brown" points="1519.72,-70.12 1530.26,-69 1521.32,-63.3 1519.72,-70.12"/>
</g>
<!-- ouroboros&#45;consensus&#45;0.1.0.2:lib:src&#45;docs -->
<g id="node27" class="node">
<title>ouroboros&#45;consensus&#45;0.1.0.2:lib:src&#45;docs</title>
<path fill="none" stroke="gray" stroke-width="2" d="M1721,-51C1721,-51 1505,-51 1505,-51 1499,-51 1493,-45 1493,-39 1493,-39 1493,-27 1493,-27 1493,-21 1499,-15 1505,-15 1505,-15 1721,-15 1721,-15 1727,-15 1733,-21 1733,-27 1733,-27 1733,-39 1733,-39 1733,-45 1727,-51 1721,-51"/>
<text text-anchor="middle" x="1613" y="-29.3" font-family="Times,serif" font-size="14.00">ouroboros&#45;consensus&#45;0.1.0.2:lib:src&#45;docs</text>
</g>
<!-- ouroboros&#45;consensus&#45;0.1.0.2:lib:src&#45;docs&#45;&gt;ouroboros&#45;consensus&#45;0.1.0.2 -->
<g id="edge35" class="edge">
<title>ouroboros&#45;consensus&#45;0.1.0.2:lib:src&#45;docs&#45;&gt;ouroboros&#45;consensus&#45;0.1.0.2</title>
<path fill="none" stroke="gray" d="M1712.19,-51.04C1719.39,-53.64 1726.41,-56.61 1733,-60 1772.86,-80.49 1810.02,-117.12 1832.5,-141.98"/>
<polygon fill="gray" stroke="gray" points="1830.01,-144.45 1839.26,-149.6 1835.24,-139.8 1830.01,-144.45"/>
</g>
</g>
</svg>
